<svg xmlns="http://www.w3.org/2000/svg" height="1200" width="1600" version="1.1" xmlns:xlink="http://www.w3.org/1999/xlink" xmlns:svgjs="http://svgjs.com/svgjs"><rect fill="#f3ebe9" width="1600" height="1200"></rect><g><path d="M411.12 511.55C480.5 462.98 653.02 487.56 752.16 437.36 851.92 386.87 877.69 261.9 941.22 215.43 1004.75 168.96 1105.13 200.68 1153.42 267.91 1202 335.75 1197.87 439.4 1177.63 521.16 1157.72 602 1121.7 660.94 1083.55 718.63 1045.7 776.95 1004.79 833.7 930.07 899.42 855.05 964.51 746.22 1038.56 654.3 1024.09 561.77 1009.91 486.44 907.82 431.74 794.84 376.73 682.78 342.04 560.74 411.12 511.55Z" fill="#efdcd7" opacity="1" stroke-width="4" stroke="none"></path></g><g><path d="M1318.32 227.62C1299.68 227.62 1284.58 212.51 1284.58 193.88 1284.58 175.24 1299.68 160.14 1318.32 160.14 1336.95 160.14 1352.06 175.24 1352.06 193.88 1352.06 212.51 1336.95 227.62 1318.32 227.62Z" fill="#c4b5fd" opacity="1" stroke-width="4" stroke="none"></path></g><g><path d="M1286.48 869.61C1269.17 863.99 1254.89 851.45 1247.29 834.99 1239.17 817.71 1238.49 797.83 1245.57 780.06 1254.66 756.88 1270.03 746.95 1286.26 736.37 1301.26 726.72 1318.16 715.7 1332.62 692.68 1333.72 690.92 1335.98 690.47 1337.73 691.56 1338.61 692.11 1339.14 692.94 1339.38 693.81 1342.51 706.97 1342.22 729.44 1331.03 749.3L1328.56 753.65C1323.79 762.27 1321.75 765.7 1316.15 774.83 1312.04 781.42 1310.94 788.06 1312.85 793.56 1314.23 797.44 1317.32 800.55 1321.14 801.79 1322.33 802.18 1323.44 802.41 1324.64 802.4 1335.63 802.66 1336.83 793.68 1338.51 781.16 1339.86 771.3 1341.59 759.06 1348.72 748.04 1349.78 746.41 1351.84 745.76 1353.63 746.34 1355.18 746.84 1356.34 748.14 1356.48 749.77 1358.12 760.59 1361.88 768.94 1365.56 777.13 1371.79 791.29 1377.65 804.54 1370.41 826.87 1359.23 861.78 1321.59 880.99 1286.48 869.61Z" fill="#c4b5fd" opacity="1" stroke-width="4" stroke="none"></path><path d="M1365.48 700.82C1363.81 700.28 1362.69 698.86 1362.55 697.23 1361.91 691.08 1359.68 686.14 1357.62 681.51 1354.14 673.92 1350.95 666.68 1355.82 655.72 1359.76 646.84 1367.09 641.3 1372.67 638.35 1373.66 637.75 1374.88 637.62 1376.08 638.01 1377.87 638.59 1379.16 640.32 1379.17 642.31 1379.2 649.97 1380.57 657.54 1383.13 664.71 1390.24 684.7 1377.43 695.72 1369.29 700.47 1367.91 701.08 1366.68 701.21 1365.48 700.82Z" fill="#c4b5fd" opacity="1" stroke-width="4" stroke="none"></path><path d="M1217.57 1082.18C1214.31 1081.25 1212.18 1078.05 1212.39 1074.56L1228.98 834.07 1229.02 833.95C1229.22 833.75 1254.28 811 1300.49 825.98 1324.62 833.8 1337.78 846.51 1344.53 855.83 1351.96 865.89 1353.58 874.33 1353.58 874.33L1353.54 874.45 1225.88 1078.93C1224.36 1082 1220.76 1083.34 1217.57 1082.18Z" fill="#896ef7" opacity="1" stroke-width="4" stroke="none"></path><path d="M1327.16 838.98L1327.36 839.18C1349.72 854.87 1353.53 874.05 1353.58 874.33L1353.54 874.45 1225.92 1079.21C1224.75 1081.2 1222.62 1082.49 1220.32 1082.67L1219.92 1082.67 1327.16 838.98Z" fill="#0b0b0b" opacity="0.3" stroke-width="4" stroke="none"></path><path d="M1229.3 834.31C1229.3 834.31 1253.92 811.28 1300.5 826.38 1347.07 841.47 1353.5 874.57 1353.5 874.57" stroke="#0b0b0b" stroke-width="4" stroke-linecap="round" stroke-linejoin="round" opacity="1" fill="none"></path><path d="M1225.9 878.6C1238.96 869.24 1259.45 860.58 1286.56 869.37 1313.67 878.15 1325.06 896.76 1330.15 912" stroke="#0b0b0b" stroke-width="4" stroke-linecap="round" stroke-linejoin="round" opacity="1" fill="none"></path></g><g><path d="M345.52 252.32L563.39 208.94 630.23 343.85 345.52 252.32Z" fill="#896ef7" opacity="1" stroke-width="4" stroke="none"></path></g><g><path d="M1151.19 813.27C1148.29 813.13 1145.53 812.11 1143.35 810.08 1142.33 810.37 1141.17 810.51 1140.15 810.51 1131.29 810.51 1126.5 801.22 1125.77 799.91 1118.66 798.17 1112.85 793.37 1109.8 786.69 1100.07 767.23 1090.48 744.28 1077.85 709.72L1077.7 709.43 1161.65 685.17 1164.12 688.08 1164.55 690.4C1172.39 722.35 1176.61 739.93 1172.83 745.74 1172.1 746.75 1171.09 747.48 1169.93 747.77 1170.07 750.97 1171.38 784.95 1171.38 795.41 1171.52 798.89 1170.36 802.23 1168.18 804.85 1166.44 806.59 1164.12 807.75 1161.65 807.75 1160.92 807.75 1160.34 807.61 1159.61 807.46 1159.47 808.62 1158.45 811.96 1153.66 813.13 1152.79 813.27 1152.06 813.27 1151.19 813.27Z" fill="#f9b298" opacity="1" stroke-width="4" stroke="none"></path><path d="M1159.47 806.88L1144.95 758.95" stroke="#000000" stroke-width="4" stroke-linecap="round" stroke-linejoin="round" opacity="1" fill="none"></path><path d="M1143.49 809.79L1127.52 763.31" stroke="#000000" stroke-width="4" stroke-linecap="round" stroke-linejoin="round" opacity="1" fill="none"></path><path d="M1126.06 799.62L1111.54 764.76" stroke="#000000" stroke-width="4" stroke-linecap="round" stroke-linejoin="round" opacity="1" fill="none"></path><path d="M1169.64 747.33C1159.47 745.88 1150.75 724.1 1150.75 724.1 1150.75 724.1 1139.14 722.64 1130.42 715.38" stroke="#000000" stroke-width="4" stroke-linecap="round" stroke-linejoin="round" opacity="1" fill="none"></path><path d="M947.86 372.2C946.85 351.43 944.38 300.3 944.23 281.57 943.8 240.32 964.86 250.34 1001.89 247.44 1005.52 247.15 1011.04 233.21 1014.53 233.21 1042.26 233.21 1060.71 219.99 1072.76 239.02 1079.88 250.05 1081.33 264.58 1083.08 279.83 1083.8 286.8 1084.67 294.06 1085.98 301.47L1086.27 303.35C1089.18 319.48 1092.23 336.18 1082.93 349.68 1075.38 360.58 1060.42 362.9 1049.24 362.9 1044.44 362.9 1039.8 362.47 1035.15 361.74L1035 373.5 947.86 372.2Z" fill="#f9b298" opacity="1" stroke-width="4" stroke="none"></path><path d="M947.43 361.3C946.27 337.78 944.23 296.09 944.09 281.42 943.65 240.18 965.73 213.6 1002.62 210.7 1006.25 210.41 1009.88 210.26 1013.36 210.26 1041.1 210.26 1060.56 219.99 1072.62 238.87 1075.52 243.66 1077.7 249.04 1079.01 254.56V254.7 254.85C1078.28 257.32 1066.37 270.24 1032.82 270.24 1029.77 270.24 1026.58 270.1 1023.24 269.95 1023.38 272.71 1024.26 292.46 1018.88 304.66L1018.74 304.95 1018.45 304.66C1018.3 304.52 1000 288.69 984.75 288.69 978.51 288.54 972.55 291.88 969.5 297.26 957.3 316.72 986.64 341.7 986.93 341.84L987.22 341.99 987.08 342.28C974.15 358.11 947.86 361.3 947.72 361.3H947.43Z" fill="#c65a42" opacity="1" stroke-width="4" stroke="none"></path><path d="M999.71 320.35L989.55 313.09" stroke="#000000" stroke-width="4" stroke-linecap="round" stroke-linejoin="round" opacity="1" fill="none"></path><path d="M1035 361.59C1028.9 359.71 1023.38 358.4 1015.69 355.2" stroke="#000000" stroke-width="4" stroke-linecap="round" stroke-linejoin="round" opacity="1" fill="none"></path><path d="M1059.98 299.43L1061.15 302.63C1061.87 304.52 1061.44 306.55 1059.98 307.86L1059.69 308.29" stroke="#000000" stroke-width="4" stroke-linecap="round" stroke-linejoin="round" opacity="1" fill="none"></path><path d="M1064.78 323.83C1062.74 325.43 1055.92 326.16 1051.71 321.51" stroke="#000000" stroke-width="4" stroke-linecap="round" stroke-linejoin="round" opacity="1" fill="none"></path><path d="M1041.97 300.89C1044.05 300.89 1045.75 299.2 1045.75 297.11 1045.75 295.02 1044.05 293.33 1041.97 293.33 1039.88 293.33 1038.2 295.02 1038.2 297.11 1038.2 299.2 1039.88 300.89 1041.97 300.89Z" fill="#231f20" opacity="1" stroke-width="4" stroke="none"></path><path d="M1072.47 297.98C1074.55 297.98 1076.25 296.3 1076.25 294.21 1076.25 292.11 1074.55 290.43 1072.47 290.43 1070.38 290.43 1068.7 292.11 1068.7 294.21 1068.7 296.3 1070.38 297.98 1072.47 297.98Z" fill="#231f20" opacity="1" stroke-width="4" stroke="none"></path><path d="M1025.56 377.28L1008.57 352.01C1016.99 355.93 1025.71 359.56 1034.71 361.59H1035V380.18L1025.56 377.28Z" fill="#000000" opacity="0.3" stroke-width="4" stroke="none"></path><path d="M890.35 649.3C893.4 633.91 897.61 619.53 903.42 605.01L903.57 604.86H1087L1087.14 605.01C1087.29 605.15 1094.4 620.98 1094.4 650.61H1087.43L890.06 651.48 890.35 649.3Z" fill="#090808" opacity="1" stroke-width="4" stroke="none"></path><path d="M1164.12 688.08C1164.12 688.08 1163.1 683.87 1162.66 681.83 1159.18 667.17 1155.4 652.35 1151.63 637.97 1145.38 614.16 1139.57 591.5 1135.07 570 1134.34 566.37 1133.33 561.29 1132.16 554.75 1125.34 517.72 1110.96 440.31 1088.59 411.7V411.55C1075.67 395.87 1062.6 385.56 1034.86 379.6V370.89H947.86L948.3 380.47C946.41 380.62 944.81 380.76 943.07 381.06 887.59 388.03 828.05 459.77 796.09 523.53 785.2 545.46 777.07 579.15 790.28 602.25 798.71 617.21 814.97 625.48 838.36 627.08 840.83 627.23 843.44 627.37 846.05 627.37 886.57 627.37 925.35 607.04 925.64 606.89L1087.29 607.91C1087.29 615.46 1087.29 650.61 1087.29 650.61L1055.05 650.75C1055.05 650.75 1067.83 684.74 1070.44 691.56L1078.86 712.91 1164.12 688.08Z" fill="#ff6161" opacity="1" stroke-width="4" stroke="none"></path><path d="M1079.01 712.91C1067.1 685.47 1053.45 643.49 1041.25 615.17 1040.38 613.14 1087.29 607.91 1087.29 607.91 1087.29 607.91 1105.73 594.98 1097.16 548.51L1092.23 507.7C1092.23 507.7 1092.08 507.7 1092.23 507.7 1108.35 507.7 1111.25 559.69 1114.01 587.87 1114.16 589.9 1114.45 591.64 1114.59 593.39 1118.22 627.95 1126.21 661.94 1138.41 694.32L1138.85 695.49 1079.01 712.91Z" fill="#090808" opacity="0.3" stroke-width="4" stroke="none"></path><path d="M1087.29 607.91C1109.07 586.13 1093.68 541.1 1092.66 516.41 1092.23 505.08 1091.64 491 1091.06 477.05" stroke="#090808" stroke-width="4" stroke-linecap="round" stroke-linejoin="round" opacity="1" fill="none"></path><path d="M948.3 380.47L1018.59 481.56 1034.86 379.6" stroke="#2906b2" stroke-width="4" stroke-linecap="round" stroke-linejoin="round" opacity="1" fill="none"></path><path d="M900.95 512.06L887.45 536.89" stroke="#090808" stroke-width="4" stroke-linecap="round" stroke-linejoin="round" opacity="1" fill="none"></path><path d="M960.5 589.32L957.3 549.96 931.31 524.11 887.45 536.89 900.95 512.06 931.31 489.84H931.45C932.18 489.69 932.76 489.54 933.48 489.54 942.78 489.54 947.28 505.38 953.09 525.42 961.37 554.17 972.99 594.84 1005.09 607.33L925.64 606.89 960.5 589.32Z" fill="#090808" opacity="0.3" stroke-width="4" stroke="none"></path><path d="M1020.77 528.03C1040.42 528.03 1056.35 512.1 1056.35 492.45 1056.35 472.8 1040.42 456.87 1020.77 456.87 1001.12 456.87 985.19 472.8 985.19 492.45 985.19 512.1 1001.12 528.03 1020.77 528.03Z" fill="#c4b5fd" opacity="1" stroke-width="4" stroke="none"></path><path d="M931.02 523.82L931.31 523.67C940.02 519.03 948.15 513.65 956 507.55 974.01 493.47 985.04 490.13 985.19 490.13L985.62 489.98V490.42C985.62 490.56 985.62 498.84 988.38 503.2 991.29 502.47 1024.11 494.92 1045.61 494.92 1052.43 494.92 1057.66 495.64 1060.85 497.24 1062.6 497.97 1063.9 499.42 1064.49 501.16 1065.07 503.49 1064.92 505.96 1063.76 508.13 1067.1 509.3 1069.57 512.06 1070.73 515.25 1071.46 518.16 1071.02 521.21 1069.42 523.67 1071.46 525.27 1072.62 527.6 1072.62 530.21 1072.62 532.82 1071.6 536.46 1066.23 539.65 1058.53 544.01 1031.95 550.83 1024.84 552.58 1032.39 553.16 1059.98 555.63 1062.74 561.87 1063.18 563.03 1062.89 564.19 1062.02 565.07 1059.69 567.83 1049.67 568.7 1038.2 569.57 1026.14 570.59 1012.35 571.6 1003.63 575.09 989.69 580.75 975.17 585.54 960.5 589.18H960.21L931.02 523.82Z" fill="#f9b298" opacity="1" stroke-width="4" stroke="none"></path><path d="M960.21 589.47L925.64 606.46" stroke="#090808" stroke-width="4" stroke-linecap="round" stroke-linejoin="round" opacity="1" fill="none"></path><path d="M931.45 523.82L863.19 544.01" stroke="#090808" stroke-width="4" stroke-linecap="round" stroke-linejoin="round" opacity="1" fill="none"></path><path d="M1063.18 508.28C1027.16 510.6 990.85 519.32 990.85 519.32" stroke="#000000" stroke-width="4" stroke-linecap="round" stroke-linejoin="round" opacity="1" fill="none"></path><path d="M1068.84 523.82C1044.59 526.58 998.11 536.75 998.11 536.75" stroke="#000000" stroke-width="4" stroke-linecap="round" stroke-linejoin="round" opacity="1" fill="none"></path><path d="M1024.84 552.58L1004.07 557.08" stroke="#000000" stroke-width="4" stroke-linecap="round" stroke-linejoin="round" opacity="1" fill="none"></path></g><g><path d="M220.22 583.61L445.09 621.36 252.23 521.98 220.22 583.61Z" fill="#c4b5fd" opacity="1" stroke-width="4" stroke="none"></path></g><g><path d="M842.66 1042.7L863.12 1001.97 863.85 1045.27 929.82 1036.27 870.59 1064.07 904.21 1099.17 858.77 1083.3 844.37 1129.36 839.35 1081.28 789.01 1092.55 828.08 1059.54 802.36 1021.44 842.66 1042.7Z" fill="#ff6161" opacity="1" stroke-width="4" stroke="none"></path></g><g><path d="M726.78 775.21C726.12 775.18 657.91 778.03 636.3 751.48 629.87 743.57 627.99 733.81 631 722.29 653.97 632.11 665.08 574.43 665.3 573.9 665.09 572.8 637.45 443.69 637.81 392.99 638.05 363.71 638.86 337.41 646.58 335.93 647.21 335.81 647.71 335.87 648.21 335.94 654.72 337.46 657.57 351.45 659.34 359.77 659.64 361.34 659.97 363.08 660.59 364.59 664.12 359.17 669.21 351.66 675.75 320.34 679.76 301.28 687.43 297.02 691.69 296.21 692.79 295.99 694.08 295.91 695.27 296.17 696.79 294.73 698.72 293.71 700.77 293.31 704.23 292.65 708.91 294.03 711.73 304.43 712.89 304.53 713.99 305.14 714.8 305.96 718.36 309.2 722.76 318.48 722.8 344.11 724.3 341.7 728.84 335.6 732.15 334.96 732.93 334.81 733.62 335.01 734.22 335.54 735.62 336.91 736.26 340.21 735.91 346 734.42 368.83 720.51 418.71 719.83 421.13 721.06 424.97 755.02 538.49 755.83 587.66 756.86 659.17 727.73 774.21 727.47 775.41L727.35 775.6 726.78 775.21Z" fill="#c65a42" opacity="1" stroke-width="4" stroke="none"></path><path d="M654.64 932.36C651.06 927.33 642.76 918.15 636.51 911.19 634.02 908.4 631.96 906.18 630.68 904.63L630.65 904.48 633.4 876.34C633.59 875.65 642.52 854.17 647.54 731.84L647.64 731.49 647.98 731.59C673.95 738.35 699.64 753 715.28 769.75L715.65 770.01C725.96 781.09 743.06 799.52 752.29 820.28 758.88 835.02 763.61 847.67 767.03 856.97L768.33 860.31C768.33 860.31 768.36 860.47 768.2 860.5L655.52 932.68 654.64 932.36Z" fill="#896ef7" opacity="1" stroke-width="4" stroke="none"></path><path d="M679.49 967.26C678.77 967.73 677.76 967.6 677.29 966.87 667.87 951.86 660.74 941.15 654.86 932.64L654.64 932.36 767.77 859.12 768.17 860.34C769.53 864 770.11 867 771.07 869.42 775.12 878.61 780.79 886.83 787.72 893.98L787.81 894.46 679.49 967.26Z" fill="#c65a42" opacity="1" stroke-width="4" stroke="none"></path><path d="M581.61 744.87L576.36 709.13C576.04 709.19 575.57 709.28 575.1 709.37 568.01 710.73 543.99 714.05 530.87 700.25 519.42 688.24 521.66 672.78 530.48 644.79 529.58 643.49 523.06 635.11 524.39 630.12 524.78 628.74 525.7 627.58 527.02 626.83 530.53 624.69 536.96 623.29 538.38 623.01 542.46 610.3 545.74 600.2 550.26 592.3 551.98 589.36 554.14 586.98 556.11 584.48 562.07 577.29 569.74 583.16 582.81 580.64 597.61 577.79 614.62 578.76 631.86 583.44 657.01 590.2 671.69 609.58 671.06 635.19 670.75 652.23 652.87 738.33 652.58 739.36L652.61 739.52 628.18 747.49 581.61 744.87Z" fill="#c65a42" opacity="1" stroke-width="4" stroke="none"></path><path d="M542.78 658.59C545.65 661.63 551.92 660.26 554.56 656.16" stroke="#000000" stroke-width="4" stroke-linecap="round" stroke-linejoin="round" opacity="1" fill="none"></path><path d="M602.95 671.66L614.94 667.72" stroke="#000000" stroke-width="4" stroke-linecap="round" stroke-linejoin="round" opacity="1" fill="none"></path><path d="M555.58 631.79C557.58 631.4 558.89 629.47 558.51 627.46 558.12 625.46 556.19 624.16 554.19 624.54 552.19 624.93 550.88 626.86 551.26 628.86 551.65 630.86 553.58 632.17 555.58 631.79Z" fill="#231f20" opacity="1" stroke-width="4" stroke="none"></path><path d="M366.39 1049.62C358.05 1051.23 354.7 1049.1 353.91 1048.43 351.04 1049.64 348.14 1050.69 345.15 1051.26 334.6 1053.3 331.4 1047.71 330.81 1046.35 325.45 1047.38 321.56 1046.66 319.28 1044.16 316.03 1040.87 316.92 1035.3 317.18 1034.11 314.62 1031.83 313.16 1028.51 313.19 1025.24 313.38 1019.49 318.08 1013.36 327.06 1007.38 351.81 990.85 365.74 981.8 367.92 980.4 366.71 979.16 361.39 979.53 355.91 979.94 346.75 980.72 336.3 981.59 335.15 975.6 333.6 967.57 353.04 959.09 382.85 946.82 425.57 929.44 523.44 910.1 542.65 906.4L545.65 905.82C545.81 899.91 548.1 799.83 563.08 762.32 570.26 744.44 584.15 733.43 604.3 729.55 626.04 725.36 647.61 731.34 647.92 731.28 648.33 731.69 683.14 759.77 682.89 811.93 682.77 855.4 640.78 877.37 637.63 878.79 637.47 883.07 633.11 957.09 594.24 981.72 583.28 988.41 563.54 994.5 537.4 999.53 515.79 1003.53 493.97 1006.43 472.1 1008.19 454.25 1009.67 441.6 1010.15 440.31 1010.23 438.42 1011.41 402.24 1033.9 381.6 1043.75 376.79 1046.8 371.59 1048.62 366.39 1049.62Z" fill="#c65a42" opacity="1" stroke-width="4" stroke="none"></path><path d="M650.49 926.95C646.44 922.01 640.04 915.08 635.7 910.36L633.8 908.12C633.8 908.12 640.55 879.54 637.3 840.64L637.27 840.48C638.03 839.35 639.17 838.48 640.43 838.24 641.69 837.99 643.07 838.38 644.04 839.17 645.42 840.38 647.19 842.81 647.47 848.48 647.9 853.29 647.91 856.72 647.98 859.65 648.06 866.82 648.06 871.88 653.45 888 658.16 902.28 657.08 911.96 655.4 917.67 654.59 921.1 650.49 926.95 650.49 926.95Z" fill="#141414" opacity="0.3" stroke-width="4" stroke="none"></path><path d="M835.24 869.31C825.53 871.51 815.29 869.24 807.31 863.42 797.93 856.25 793.17 844.26 794.18 830.84 794.12 830.52 793.93 830.39 793.61 830.45 785.33 835.81 776.25 839.52 766.51 841.55 750.92 844.56 736.44 841.47 725.94 832.71 712.33 821.45 706.65 802.12 710.83 780.57 710.93 780.23 710.58 780.13 710.27 780.19 702.97 783.88 695.18 786.69 687.02 788.43 679.15 789.94 671.19 790.17 663.27 788.92 635.62 784.44 617.4 768.68 609.44 741.79 605.45 727.86 606 699.33 606.11 696.53 606.08 696.38 606.21 696.19 606.37 696.16 608.8 695.2 630.4 686.96 636.48 672.72 638.85 667.2 638.8 661 636.29 655.6 630.77 643.93 613.87 645.22 604.26 647.07 601.27 647.65 598.31 648.38 595.38 649.27L595.06 649.33 595 649.02C591.25 636.35 596.34 624.59 598.12 621.14 598.25 620.95 598.03 620.67 597.84 620.54 594.6 620.68 585.45 620.64 582.28 615.21 579.89 611.26 581.47 605.07 586.84 597.34 586.97 597.15 586.72 596.71 586.41 596.77 561.87 600.85 550.64 592.56 550.45 592.43L550.26 592.3 550.39 592.11C551.98 589.36 553.64 586.92 555.6 584.41 561.57 577.22 572.59 571.67 585.66 569.15 600.46 566.3 617.47 567.27 634.87 571.92 686.89 585.91 680.19 634.24 676.27 651.17 676.17 651.52 676.52 651.61 676.83 651.55 684.31 647.99 692 645.53 699.85 643.85 721.11 639.76 748.93 642.56 761.72 679.3 765.51 690.5 765.99 702.33 763.46 713.76 763.36 714.1 763.71 714.2 764.02 714.14 769.16 712.01 774.21 710.22 779.72 709.16 795.31 706.15 809.79 709.24 820.3 718 837.41 732.18 841.62 758.32 831.06 784.86 830.96 785.2 831.18 785.49 831.46 785.27 832.38 784.93 833.48 784.72 834.27 784.57 843.97 782.37 854.21 784.64 862.19 790.46 878.83 803.09 880.06 829.81 864.79 849.74 857.76 859.91 847.15 866.69 835.24 869.31Z" fill="#231f20" opacity="1" stroke-width="4" stroke="none"></path><path d="M471.47 1008.31C453.78 1009.76 441.6 1010.15 440.31 1010.23L420.94 934.25 421.26 934.19C430.4 931.61 440.67 928.98 451.57 926.23L451.89 926.17 472.1 1008.19 471.47 1008.31Z" fill="#ff6161" opacity="1" stroke-width="4" stroke="none"></path><path d="M633.8 908.12C633.8 908.12 641.6 864.64 637.3 840.64" stroke="#000000" stroke-width="4" stroke-linecap="round" stroke-linejoin="round" opacity="1" fill="none"></path><path d="M576.36 709.13C581.05 708.06 585.78 706.33 590.17 704.51" stroke="#000000" stroke-width="4" stroke-linecap="round" stroke-linejoin="round" opacity="1" fill="none"></path><path d="M695.15 296.36C695.4 305.29 690.91 339.64 688.34 359.41" stroke="#000000" stroke-width="4" stroke-linecap="round" stroke-linejoin="round" opacity="1" fill="none"></path><path d="M711.29 304.68C711.29 304.68 710.27 340.97 705.29 364.31" stroke="#000000" stroke-width="4" stroke-linecap="round" stroke-linejoin="round" opacity="1" fill="none"></path><path d="M722.8 344.11C722.27 352.38 720.73 361.34 719.04 369.5" stroke="#000000" stroke-width="4" stroke-linecap="round" stroke-linejoin="round" opacity="1" fill="none"></path><path d="M353.91 1048.43C353.91 1048.43 375.86 1036.86 397.22 1023.1" stroke="#000000" stroke-width="4" stroke-linecap="round" stroke-linejoin="round" opacity="1" fill="none"></path><path d="M330.94 1046.16C362.78 1026.63 386.83 1010.73 386.83 1010.73" stroke="#000000" stroke-width="4" stroke-linecap="round" stroke-linejoin="round" opacity="1" fill="none"></path><path d="M317.37 1034.24C317.37 1034.24 369.03 1001.42 376.14 996.78" stroke="#000000" stroke-width="4" stroke-linecap="round" stroke-linejoin="round" opacity="1" fill="none"></path><path d="M794.41 829.48L830.16 786.17" stroke="#ff6161" stroke-width="4" stroke-linecap="round" stroke-linejoin="round" opacity="1" fill="none"></path><path d="M590.07 704.85L579.69 731.51 576.36 709.13C576.36 709.13 582.75 708.38 589.29 704.18 589.73 703.94 590.14 704.35 590.07 704.85Z" fill="#000000" opacity="0.3" stroke-width="4" stroke="none"></path><path d="M675.88 652.55L669.69 678.08" stroke="#231f20" stroke-width="4" stroke-linecap="round" stroke-linejoin="round" opacity="1" fill="none"></path><path d="M711.43 779.48L763.07 715.14" stroke="#ff6161" stroke-width="4" stroke-linecap="round" stroke-linejoin="round" opacity="1" fill="none"></path></g></svg>