<svg xmlns="http://www.w3.org/2000/svg" height="1200" width="1600" version="1.1"
    xmlns:xlink="http://www.w3.org/1999/xlink"
    xmlns:svgjs="http://svgjs.com/svgjs">
    <g>
        <path d="M1345.9 307.41C1341.88 287.95 1329.27 270.23 1312.1 260.09 1295.84 250.59 1277.93 249.03 1259.66 249.22 1214.26 249.58 1168.86 250.13 1123.46 251.13 939.39 254.79 755.04 262.37 571.33 275.52 526.11 278.81 480.71 282.38 435.49 286.21 412.75 288.13 390.28 290.23 367.53 292.33 336.01 295.35 296.37 292.88 272.52 316.54 248.5 340.2 251.33 374.73 252.88 405.61 254.07 427.9 256.36 450.1 259.19 472.02 265.49 519.16 273.89 566.11 282.12 612.79 285.4 630.88 288.24 649.24 290.89 667.33 295.82 707.62 297.19 747.63 298.74 788.1 300.66 837.15 307.51 883.83 328.52 928.5 331.35 934.81 336.74 940.56 343.05 945.13 344.97 949.88 347.61 954.63 351.27 959.29 362.51 974 378.95 982.4 397.68 982.58 582.39 984.13 766.83 983.5 951.54 980.66 997.94 979.93 1044.08 979.11 1090.39 978.2 1113.32 977.65 1135.98 977.28 1158.9 976.64 1190.6 975.91 1226.87 979.29 1251.08 954.54 1272.09 932.98 1273.18 898.63 1278.21 870.4 1282.05 848.11 1285.88 825.73 1289.44 803.44 1296.66 758.22 1303.6 712.82 1309.82 667.42 1322.97 572.6 1334.39 477.59 1343.62 382.41 1345.72 358.11 1351.11 331.98 1345.9 307.41Z" fill="#1a1919" opacity="1" stroke-width="4" stroke="none"></path>
    </g>
    <g>
        <path d="M788.44 872.84L788.44 978.34" stroke="#2b2b2b" stroke-width="4" stroke-linecap="round" stroke-linejoin="round" opacity="1" fill="none"></path>
        <path d="M685.3 853.77C814.34 906.99 962.22 845.29 1015.44 716.25 1068.66 587.2 1006.97 439.32 877.92 386.1L685.3 853.77Z" stroke="#2b2b2b" stroke-width="4" stroke-linecap="round" stroke-linejoin="round" opacity="1" fill="none"></path>
        <path d="M685.3 853.77C814.34 906.99 962.22 845.29 1015.44 716.25 1068.66 587.2 1006.97 439.32 877.92 386.1L685.3 853.77Z" fill="#878787" opacity="0.3" stroke-width="4" stroke="none"></path>
        <path d="M780.2 406.35C764.18 406.35 747.94 408.24 733.1 411.53 706.49 417.42 665.75 452.51 665.75 452.51 665.75 452.51 617.48 478.17 601.7 501.72 578.86 535.87 565.44 577.08 565.44 621.11 565.44 739.79 661.51 835.87 780.2 835.87 892.99 835.87 985.77 748.04 994.49 637.36 994.96 631.71 994.96 627 994.96 621.11 994.96 606.04 977.3 582.02 977.3 582.02 977.3 582.02 982 545.76 975.18 530.92 941.03 457.69 866.38 406.35 780.2 406.35Z" fill="#9c89ec" opacity="1" stroke-width="4" stroke="none"></path>
        <path d="M923.84 683.98C905.94 761.93 881.45 717.19 860.26 742.86 826.12 784.06 793.38 802.43 767.95 798.66 742.52 794.9 787.26 764.75 787.26 716.25 787.26 667.74 801.39 636.65 838.13 631.24 874.86 625.82 885.93 664.91 908.53 653.14 925.25 644.19 878.39 596.15 874.62 553.76 868.74 490.42 971.17 529.74 975.18 530.92 975.18 530.92 975.41 530.92 975.41 531.16 990.72 564.36 997.55 600.86 994.72 637.36 994.72 637.36 994.72 637.36 994.72 637.59 959.63 682.34 933.02 643.95 923.84 683.98Z" fill="#c4b5fd" opacity="1" stroke-width="4" stroke="none"></path>
        <path d="M733.1 411.53C738.99 413.89 743.93 416.95 748.88 420.48 795.97 452.98 813.87 524.56 787.26 536.57 760.89 548.58 727.68 503.61 705.08 495.83 665.99 482.65 671.87 517.97 693.77 528.8 715.67 539.63 752.17 539.87 759.47 569.07 767.01 599.21 736.63 606.98 702.96 611.22 669.28 615.46 665.99 728.49 639.38 718.6 612.77 708.71 585.92 638.54 607.35 553.76 614.65 525.03 609.94 510.2 601.94 501.96V501.72C632.55 456.04 679.41 423.78 733.1 411.53Z" fill="#c4b5fd" opacity="1" stroke-width="4" stroke="none"></path>
        <path d="M837.18 956.44H737.34C712.61 956.44 692.6 976.45 692.6 1001.18V1002.59H881.92V1001.18C881.92 976.45 861.91 956.44 837.18 956.44Z" fill="#cbcbcb" opacity="1" stroke-width="4" stroke="none"></path>
    </g>
    <g>
        <path d="M701.85 310.67L756.32 270.37 709.06 231.5C708.23 230.79 708 229.61 708.47 228.66 708.94 227.72 710.13 227.13 711.19 227.48L768.26 241.54 776.41 183.17C776.53 182.11 777.47 181.17 778.54 181.17 779.72 181.05 780.66 181.76 781.02 182.94L797.92 243.43 873.18 223.94C874.36 223.7 875.43 224.17 875.9 225.24 876.37 226.3 876.02 227.6 875.07 228.19L814.34 267.3 876.61 318.35C877.55 319.05 877.79 320.35 877.2 321.42 876.61 322.36 875.43 322.84 874.24 322.36L801.22 292.94 791.06 347.18C790.83 348.24 789.88 349.07 788.82 349.07 788.82 349.07 788.82 349.07 788.7 349.07 787.64 349.07 786.69 348.36 786.45 347.29L772.75 294.36 704.1 314.92C703.04 315.27 701.85 314.68 701.26 313.74 700.67 312.56 700.91 311.37 701.85 310.67Z" fill="#f75050" opacity="1" stroke-width="4" stroke="none"></path>
        <path d="M832.42 178.57L844.59 157.89" stroke="#d8cfd2" stroke-width="4" stroke-linecap="round" stroke-linejoin="round" opacity="1" fill="none"></path>
        <path d="M739.78 200.54L732.57 189.56" stroke="#d8cfd2" stroke-width="4" stroke-linecap="round" stroke-linejoin="round" opacity="1" fill="none"></path>
        <path d="M716.74 352.73L704.57 364.9" stroke="#d8cfd2" stroke-width="4" stroke-linecap="round" stroke-linejoin="round" opacity="1" fill="none"></path>
        <path d="M879.8 268.72H905.44" stroke="#d8cfd2" stroke-width="4" stroke-linecap="round" stroke-linejoin="round" opacity="1" fill="none"></path>
    </g>
</svg>