<?xml version="1.0" encoding="UTF-8"?>
<svg id="Ebene_1" data-name="Ebene 1"
    xmlns="http://www.w3.org/2000/svg" viewBox="0 0 1465.56 1479.03">
    <defs>
        <style>
      .cls-1 {
        fill: none;
        stroke: #000;
        stroke-miterlimit: 10;
        stroke-width: 5px;
      }
        </style>
    </defs>
    <path class="cls-1" d="m90.91,50.7c73.88,5.38,137.1,48.41,208.92,62.36,25.43,4.94,51.8,6.73,69.14-15.33,13.51-17.18,16.52-40.7,25.53-60.1,28.97-62.4,103.82-24.01,150.39-4.27,39.63,16.81,78.4,35.59,118.06,52.33,32.24,13.61,66.81,29.34,102.33,30.51,66.03,2.16,134.74-18.66,199.36-29.77,48.09-8.27,105.53-21.93,151.46,1.53,13.82,7.06,26.17,16.48,40.89,21.8,22.38,8.09,47.7,8.12,70.93,4.41,53.09-8.48,97.88-38.68,152.62-41.49,2.63,78.83,27.03,154.78,33.22,233.2,4.22,53.53,1.08,108.14.95,161.82-.11,43.34-7.09,93.22,11.58,133.61,15.88,34.36,36.46,59.01,36.66,99.11.32,66.1-23.35,133.12-36.66,197.33-11.99,57.87-13.76,108.59,3.42,165.46,15.98,52.87,39.06,106.23,31.72,162.65-8.4,64.58-42.97,121.99-46.64,187.68-68.72,3.11-132.12,32.61-200.15,39.62-54.56,5.62-104.8-13.69-156.54-27.62-59.95-16.14-112.02-10.53-172.14,4.32-67.76,16.74-142.16,47.62-212.82,46.62-39.85-.56-50.27-23.67-76.67-46.68-15.94-13.9-35.03-16.63-55.59-16.21-39.88.83-79.99,7.13-119.6,11.21-57.04,5.88-115.13,11.99-172.52,8.18-21.73-1.44-45.34-3.71-65.32-13.17-10.18-4.82-18.76-12.24-28.78-17.32-47.44-24.03-101.74-3.27-151.77-1.71,9.14-73.19,85.35-108.95,108.3-175.68,8.52-24.77,4.66-54.3,4.66-80.22v-77.28c0-43.1,12.31-101.99-20.66-136.04-27.3-28.2-58.12-39.91-60.6-84.28-3.87-69.29-14.83-137.39-23.72-206.18-3.88-30-9.87-62.42-7.98-92.86,1.88-30.36,17.68-55.67,34.97-79.83,19.94-27.85,43.26-53.53,60.43-83.3,15.87-27.51,18.46-52.19,16.54-83.61-5.1-83.87-21.79-166.74-23.91-250.82Z"/>
    <path class="cls-1" d="m26.64,1341.73c50.52-.91,103.79-14.78,153.41-.14,14.33,4.23,27.2,11.85,41.55,15.97,19.87,5.7,41.07,6.7,61.61,6.67,42.26-.07,84.5-5.92,126.29-11.6,54.58-7.42,127.47-30.7,174.87,8.11,32.83,26.88,53.59,65.09,100.65,65.81,69.89,1.07,142.01-36.6,207.34-56.8,29.27-9.05,59.56-17.89,90.46-17.99,27.11-.09,54.29,5.19,80.71,10.74,53.87,11.3,106.18,25.3,161.74,19.46,67.03-7.05,132.2-26.23,199.72-29.42"/>
    <path class="cls-1" d="m72.91,1285.15c57.01-.9,115.02-9.86,171.75-.64,26.28,4.27,49.77,11.32,76.69,8.49,32.3-3.39,63.56-13.41,94.76-21.93,24.66-6.73,51.02-14.92,76.78-14.69,27.24.24,49.9,13.95,70.56,30.53,41.65,33.43,85.62,99.13,144.63,100.78,27.98.78,57.95-12.88,83.08-23.74,37.37-16.14,73.37-35.28,110.8-51.29,27.21-11.63,54.81-21.83,84.65-22.7,24.18-.71,48.77,2,72.81,4.45,55.94,5.7,110.89,12.61,167.27,10.64,72.78-2.54,145.11-12.36,217.98-12.96"/>
    <path class="cls-1" d="m110.27,1227.58c62.53-.58,125.15-3.78,187.66-.86,23.16,1.08,44.8,3.89,66.99-4.86,16.42-6.47,30.33-17.5,45.36-26.47,15.87-9.47,33.41-17.45,52.17-18.44,36.18-1.92,68.12,24.94,94.21,46.79,30.21,25.31,58.03,53.36,88.57,78.29,22.3,18.2,51.2,41.67,81.49,42.42,27.37.68,57-16.43,79.87-29.24,30.69-17.19,59.84-36.96,90.35-54.46,27.51-15.78,56.16-30.9,88.37-32.54,26.63-1.36,53.62-.05,80.27.47,131.68,2.58,263.36.96,395.04,2.76"/>
    <path class="cls-1" d="m115.82,1166.45h189.65c22.96,0,46.5,1.44,67.72-9.01,13.63-6.71,23.91-17.71,36.09-26.47,50.81-36.52,101.72-5.38,143.29,30.34,30.49,26.21,58.46,55.24,89.3,81.05,22.29,18.65,50.79,42.29,81.45,42.82,27.15.47,56.39-15.97,79.14-28.75,29.33-16.48,57.1-35.56,86.25-52.35,26.88-15.49,55.55-30.62,87.14-31.73,27.61-.97,55.23-.25,82.87-1.6,133.91-6.53,267.32-1.66,401.33-1.08"/>
    <path class="cls-1" d="m115.82,1104.68h186.71c24.6,0,50.08,1.85,73.08-8.55,13.17-5.95,23.84-15.81,36.27-22.97,48.08-27.69,91.45-5.74,128.05,29.35,26.03,24.96,48.86,53.03,74.97,77.91,20.2,19.26,44.36,40.18,73.65,41.47,54.2,2.38,108.54-37.49,156.13-58.42,55.23-24.3,113.34-21.54,171.96-31.79,68.82-12.04,136.1-27.28,206.29-26.93,73.56.36,147.11,1.8,220.68,1.99"/>
    <path class="cls-1" d="m115.82,1042.91h182.14c23.9,0,49.1,2.22,72.33-4.66,13.65-4.05,25.11-11.85,37.7-18.12,41.89-20.86,83.35-13.16,114.98,21.25,34.46,37.49,66.59,112.97,124.38,116.9,48.67,3.31,96.77-18.28,142.95-30.12,24.81-6.36,48.5-8.34,73.92-9.76,38.93-2.17,77.54-13.58,115.02-23.58,81.04-21.63,162.59-52.02,247.32-51.91,65.85.09,131.69.68,197.54.66"/>
    <path class="cls-1" d="m115.81,981.15c61.24.07,122.47-.06,183.71-.03,23.94,0,48.62,1.65,72.01-4.52,13.37-3.53,25.07-10.41,37.76-15.59,42.54-17.4,83.89-11.56,112.72,25.72,29.5,38.13,50.37,104.27,105.69,108.95,44.91,3.81,92.51-9.6,136.82-15.47,24.14-3.2,48.14-3.67,72.38-5.32,43.19-2.93,85.9-17.93,126.92-30.6,87.71-27.09,174.37-63.21,267.19-63.06,61.25.1,122.5-.13,183.74-.09"/>
    <path class="cls-1" d="m99.35,936.08c68.14.43,135.03-13.97,202.98-16.51,25.54-.96,50.6.1,75.81-4.99,15.56-3.14,30.61-8.25,46.02-11.99,43.56-10.58,81.12-9.33,117.63,18.76,35.46,27.28,64.82,68.03,111.71,76.14,23.18,4.01,46.6,4.31,69.92,9.23,23.9,5.04,47.56,11.28,71.64,15.49,24.45,4.28,48.39,5.98,73.14,4.32,39.43-2.64,75.99-21.47,111.05-38.43,45.03-21.78,89.4-46.42,137-62.35,21.23-7.1,45.12-13.95,67.78-10.65,11.96,1.74,23.19,6.52,35.23,8.09,67.9,8.86,137.36-16.11,205.28-16.92"/>
    <path class="cls-1" d="m66.35,907.8c79.24-4.85,153.61-36.28,231.84-47.39,48.1-6.83,98.3-6.26,146.88-10.96,85.14-8.23,176.94-9.32,260.26,12.88,58.41,15.56,104.55,65.17,154.3,97.3,23.79,15.37,56.23,35.88,86.1,31.16,33.13-5.23,62.91-35.9,86.95-56.8,31.19-27.11,61.86-58.27,99.07-77.26,15.71-8.02,34.29-14.55,51.92-8.71,15.28,5.06,24.13,15.06,40.96,16.77,32.19,3.27,66.29-8.17,96.57-17.13,40.55-12,80.52-26.03,122.93-29.38"/>
    <path class="cls-1" d="m39.06,873.73c91.82-9.01,174.06-58.28,264.3-74.68,51.34-9.33,108.41-3.69,160.55-4.51,51.61-.81,96.34,2.34,143.87-20.62,42.86-20.71,90.81-51.58,140.42-33.77,30.94,11.11,56.39,41.73,78.26,64.95,31.14,33.06,60.37,68.07,93.52,99.19,18.13,17.02,49.34,48.32,77.46,47.5,34.02-.99,59.71-48.42,75.9-72.55,21.25-31.67,43.48-79.55,78.68-98.25,31.46-16.72,39.05,16.91,65.34,24.44,35.01,10.02,81.98-14.74,113.16-27.46,42.21-17.22,84.12-37.59,129.81-43.12"/>
    <path class="cls-1" d="m32.8,811.91c91.57-11.3,176.68-51.61,267.15-68.24,26.47-4.87,53.06-2.86,79.84-3.72,29-.93,57.94-3.13,86.91-4.63,52.13-2.71,98.84,3.98,145.76-22.67,42.93-24.39,88.89-63.03,141.54-43,31.22,11.88,56.38,41.9,78.61,65.6,31.78,33.89,61.6,69.76,95.4,101.71,18.18,17.19,49.36,48.93,77.75,47.88,33.63-1.24,58.52-46.88,74.2-70.99,19.29-29.68,39.38-75.39,72.43-92.47,30.37-15.69,39.94,17.31,65.39,24.62,34.99,10.04,82.06-15.82,112.9-28.92,41.99-17.85,83.79-38.93,129.64-44.07"/>
    <path class="cls-1" d="m22.14,722.87c85.37-2.63,170.74-5.28,256.1-7.92,63.07-1.95,120.07-15.5,181.36-29.93,50.69-11.93,104.24-7.25,151.68-30.04,43.22-20.76,84.88-51.21,135.48-38.54,29.44,7.37,55.19,27.74,78.83,45.87,31.64,24.27,61.72,50.65,94.6,73.27,21.47,14.77,49.66,34.07,77.22,33.85,29.8-.23,56.03-23.62,77.36-41.71,22.73-19.28,47.59-46.08,77.82-52.93,29.15-6.61,42.87,15.24,69.51,19.1,34.47,5,73.28-13.8,104.39-25.91,38.33-14.93,76.26-31.37,117.62-35.03"/>
    <path class="cls-1" d="m9.2,628.19c84.11,10.49,161.47,49.36,244.58,64.46,68.19,12.39,139.09-32.21,200.45-56.49,27.84-11.02,56.88-22,86.88-25.16,25.37-2.67,47.43-4.85,71.51-14.28,42.33-16.56,78.41-35.95,125.45-31.65,59.87,5.46,113.09,39.04,168.22,60.31,53.48,20.63,104.16,20.06,159.77,10.6,27.93-4.75,56.18-10.52,84.67-8.53,26.32,1.83,48.55,16.3,74.42,17.34,68.42,2.76,131.01-43.45,199.38-47.31"/>
    <path class="cls-1" d="m2.85,549.83c87.71,9.7,153.13,82.36,237.6,102.62,31.16,7.47,60.53-1.88,89.38-13.76,41.41-17.05,80.46-39.31,120.85-58.56,28.49-13.57,58.77-27.75,90.55-31.09,24.56-2.58,47.18-3.53,71.1-10.8,40.48-12.29,78.08-29.62,121.31-29.75,56.74-.17,113.02,18.45,168.11,29.85,53.45,11.06,107.59,9.48,160.8,21.95,54.73,12.82,109.73,32.36,166.74,26.86,63.35-6.11,121.42-35.67,185.48-38.4"/>
    <path class="cls-1" d="m24.58,487.88c82.6,9.29,147.8,70.74,226.28,93.58,70.19,20.43,138.56-31.38,198.5-61.56,31.29-15.76,63.08-30.25,98.4-32.92,22.31-1.69,44.03-3.68,66.06-8.07,44.94-8.94,89.97-23.47,136.22-23.52,56.92-.06,114.8,8.7,171.45,13.38,56.43,4.67,110.78,4.3,164.82,23.32,56.37,19.84,111.36,45.88,172.71,36.07,54-8.64,99.9-38.93,155.64-41.19"/>
    <path class="cls-1" d="m70.36,425.64c82.8,7.24,149.71,65.75,229.9,82.67,61.16,12.9,112.77-27.28,163.63-55.02,23.82-12.99,48.88-25.11,76.23-27.79,29.27-2.87,59.28-1.64,88.7-3.89,52-3.98,103.64-8.35,155.78-9.73,55.77-1.48,110.89-11.65,166.09-18.94,28.54-3.77,58.41-8.75,87.27-7.36,31.14,1.51,60.25,15.72,87.49,29.8,51.24,26.49,109.91,71.46,170.99,59.53,19.31-3.77,34.63-13.64,50.43-24.65,21.68-15.11,41.27-23.27,67.95-25.03"/>
    <path class="cls-1" d="m108.96,363.49c78.32,5.56,144.78,54.07,220.49,70.4,59.72,12.88,98-17.55,146.45-46.36,49.53-29.46,99.03-23.58,154.73-23.28,60.72.32,122.5,4.15,183.12,1.25,59.58-2.85,116.77-30.59,172.99-48.08,26.2-8.15,56.29-18.8,84.01-16.28,31.8,2.89,61.67,22.82,87.64,39.65,45.57,29.54,118.24,99.46,178.45,77.83,14.62-5.25,21.12-15.75,29.49-27.93,12.94-18.83,25.47-25.2,48.58-27.21"/>
    <path class="cls-1" d="m114.61,298.45c77.48,6.19,144.08,51.8,219.19,67.81,59.77,12.74,92.7-15.05,139.18-46.17,46.78-31.33,99.47-25.26,153.38-22.27,62.92,3.48,126.86,11.91,189.92,8.42,61.16-3.38,117.87-33.17,175.01-52.63,26.37-8.98,56.21-19.68,84.42-17.01,31.76,3.01,60.98,22.63,86.61,39.97,44.63,30.2,115.3,100.75,175.54,78.57,14.49-5.33,20.25-15.77,27.96-28.18,12.04-19.39,24.31-25.45,47.37-27.42"/>
    <path class="cls-1" d="m106.37,214.96c76.03,5.86,141.32,50.36,215.04,65.81,26.86,5.63,53.46,6.02,77.03-9.3,18.59-12.08,31.29-30.93,46.97-46.17,42.43-41.25,97.24-28.07,150.35-17.64,66.18,13,134.79,36.43,202.79,35.22,63.27-1.13,125.2-28.58,185.49-45.11,27.91-7.65,58.67-16.92,87.86-14.56,27.44,2.22,52.13,15.93,74.77,30.65,44.99,29.25,95.09,76.03,153.53,60.09,16.72-4.56,28.22-14.81,41.12-25.69,18.92-15.96,35.44-23.15,60.49-24.94"/>
    <path class="cls-1" d="m96.15,126.32c74.87,5.45,138.95,49.44,211.71,63.72,26.06,5.11,51.43,5.7,71.06-14.15,15.25-15.41,22.14-37.15,33.82-54.99,35.79-54.62,101.67-24.72,151.77-7.39,66.62,23.06,140.41,62.78,212.06,65.44,64.06,2.37,130.54-21.56,192.58-34.58,52.49-11.02,106.96-22.91,155.83,5.12,42.86,24.58,75.26,48.76,127.8,39.02,48.47-8.99,83.85-42.24,134.89-44.83"/>
    <path class="cls-1" d="m1325.83,81.89c2.58,81.58,42.41,156.03,51.2,236.6,5.89,53.92-6.76,106.09-15.88,158.79-7.77,44.91-11.32,92.01.08,136.64,9.58,37.5,22.71,70.33,22.76,109.89.08,60.49-14.93,120.43-23.93,179.97-8.28,54.77-7.74,105.23,4.86,159.25,12.37,53.07,30.65,107.03,24.52,162.19-7.41,66.8-34.38,129.57-38.21,197"/>
    <path class="cls-1" d="m1278.11,99.78c8.91,86.53,66.78,158.48,84.09,242.81,11.61,56.55-21.68,104.84-44.96,153.58-21.69,45.4-24.51,90.96-23.81,140.67.6,42.01.2,83.81.26,125.78.14,100.09-8.95,200.12,2.9,299.94,6.41,54,15.15,107.66,12.15,162.25-3.94,71.77-21.33,142.06-22.77,214.07"/>
    <path class="cls-1" d="m1227.63,114.23c13.18,91.28,87.17,160.15,111.08,247.91,16.49,60.52-35.87,105.52-69.19,149.23-16.11,21.13-29.37,43.02-33.35,69.57-3.39,22.6-3.38,46.15-5.35,68.97-3.65,42.18-10.33,85.3-10.33,127.63,0,94.68,7.1,189.95,9.21,284.66,1.2,54.04,2.8,108.05,1.83,162.11-1.37,76.12-10.15,151.9-10.11,228.07"/>
    <path class="cls-1" d="m1172.18,113.97c13.22,89.64,85.17,156.91,108.58,243.11,16.96,62.44-37.71,108.1-72.36,152.89-16.21,20.95-31.4,43.7-34.3,70.64-1.92,17.78-.74,36.31-1.28,54.22-1.07,35.27-3.17,70.64-2.72,105.93,1.39,109.1-19.36,216.45-9.92,325.86,4.56,52.92,7.9,104.31,6.87,157.51-1.48,75.97-6.55,151.82-7.34,227.8"/>
    <path class="cls-1" d="m1136.58,99.92c7.22,77.16,58.7,140.11,73.18,215.24,12.5,64.88-37.11,119.72-68.3,171.81-14.67,24.5-29.26,50.97-31.65,79.98-1.85,22.44.68,45.82,1.58,68.31,2.01,49.92,6.17,100.17,5.43,150.16-.87,58.63-33.59,105.24-55.39,157.46-20.29,48.59-23.03,98.39,1.67,145.59,10.31,19.7,23.44,37.96,31.97,58.58,10.37,25.05,10.57,49.76,10.23,76.43-.9,71.51-4.25,142.96-4.69,214.48"/>
    <path class="cls-1" d="m1105.81,83.2c.14,62.83,27.44,120.43,31.7,182.59,4.82,70.42-35.72,131.98-64,193.63-13.12,28.59-26.81,59.32-28.45,91.25-1.67,32.38,2.56,65.74,4.76,98.07,2.76,40.46,5.89,80.89,8.72,121.35,2.4,34.32,8.18,71.11,5.35,105.5-4.67,56.71-70.33,86.17-107.24,120.72-17.66,16.53-37.22,39.89-34.79,65.87,2.15,22.98,20.6,39.46,38.11,51.92,19.74,14.04,42.9,23.99,60.66,40.78,20.85,19.71,23.08,40.37,23.01,67.7-.18,66.29-1.63,132.57-1.58,198.87"/>
    <path class="cls-1" d="m1058.87,75.41c.67,55.57,8.93,110.53,10.66,166.02,2.29,73.39-34.18,139.04-60.55,205.66-12.06,30.47-25.2,62.94-27.08,96.1-2.08,36.81,3,74.79,5.78,111.5,3.74,49.42,8.02,98.81,11.87,148.22,3.07,39.39,10.13,81.87,6.88,121.42-4.72,57.41-93.11,74.6-134.06,98.45-20.94,12.2-44.36,30.3-41.67,57.59,2.49,25.16,25.51,38.06,46.51,46.69,25.45,10.47,53.89,15.82,77.58,30.32,26.24,16.06,27,37.09,27.01,65.23.03,63.64-.07,127.28-.02,190.93"/>
    <path class="cls-1" d="m981.44,83.63c.53,57.71,16.25,113.32,19.2,170.75,3.53,68.72-31.23,126.65-58.5,187.51-13.53,30.2-26.83,61.7-28.42,95.15-1.81,37.93,3.1,76.85,6.25,114.59,3.57,42.82,7.67,85.6,11.18,128.43,2.73,33.41,8.45,70.09,5.75,103.69-2.11,26.22-23.03,46.59-41.36,63.41-25,22.93-52.71,42.68-78.05,65.22-20.55,18.28-50.14,44.17-45.39,75.01,3.71,24.06,26.34,39.56,45.69,50.93,23.38,13.73,50.27,23.75,70.99,41.58,22.81,19.62,24.58,39.88,23.91,68.2-1.42,59.57-11.65,118.39-11.39,178.08"/>
    <path class="cls-1" d="m888.26,100.35c2.88,62.2,28.27,119.47,35.27,180.91,7.24,63.56-28.67,109.49-58,162.56-13.75,24.88-25.22,50.14-26.73,78.89-1.51,28.75,2.37,58.54,5.15,87.07,6.01,61.8,18.88,126.26,15.78,188.49-1.73,34.73-21.64,66.23-39.53,95.01-22.16,35.65-46.85,69.66-68.73,105.48-16.22,26.55-36.55,57.99-36.35,90.42.19,30.06,21.18,53.73,41.63,73.38,42.2,40.55,85.43,69.92,77.95,133.99-6.21,53.13-30.17,101.36-32.71,155.35"/>
    <path class="cls-1" d="m800.52,114.13c4.59,66.63,38.66,125.27,48.8,190.62,9.19,59.17-24.53,92.41-56.58,137.51-57.57,81.01-3.11,187-5.88,277.73-1.26,41.25-19.6,81.72-35.11,119.27-19.89,48.14-41.99,95.33-61.64,143.57-14.27,35.05-32.7,74.51-32.24,113.29.38,31.98,17.8,59.78,35.78,85.01,33.31,46.73,78.57,92.35,66.14,154.4-9.91,49.49-46.34,85.71-50.61,137.56"/>
    <path class="cls-1" d="m728.5,109.99c3.28,69.61,43.2,129.67,54.33,197.57,9.62,58.7-24.28,92.2-54.35,137.42-49.85,74.96-4.42,164.74-6.84,247.18-1.15,39.31-16.28,78.21-29.41,114.88-20.47,57.14-44.01,113.13-64.34,170.32-12.67,35.66-30.31,76.8-27.85,115.25,1.71,26.68,15.18,51.91,28.43,74.56,29.79,50.91,77.18,103.2,64.26,166.37-9.99,48.84-40.01,89.11-45.34,139.61"/>
    <path class="cls-1" d="m631.05,71.79c5.81,81.14,54.37,151.47,70.51,230.29,11.28,55.1-12.65,100.08-32.07,149.62-32.87,83.84-4.53,172.66-7.69,259.63-2.82,77.51-49.32,152.42-77.31,223.19-13.9,35.15-30.22,74.11-27.75,112.7,1.57,24.65,9.87,48.31,19.08,71.01,9.81,24.19,21.59,47.56,30.33,72.19,10.52,29.64,12.17,57.31,11.73,88.43-.82,57.68-.27,115.37-1.44,173.05"/>
    <path class="cls-1" d="m526.11,25.6c10.17,96.74,70.19,180.46,90.83,274.67,11.7,53.42-.76,108.53-7.78,161.77-12.42,94.16.9,189.15-2.45,283.65-2.15,60.58-45.14,113.11-70.19,166.01-23.24,49.07-21.9,96.02-12.95,148.51,3.75,21.99,8.46,43.83,11.25,65.98,3.73,29.63,1.71,59.29,7.06,88.75,12.96,71.36,43.14,138.57,50.04,211.16"/>
    <path class="cls-1" d="m442.85,2.55c10.86,106.54,81.3,198.11,102.73,302.25,10.79,52.43,3.23,111.95,3.2,165.33-.05,97.88,4.88,197.06.02,294.8-2.46,49.45-36.65,82.48-61.11,122.44-26,42.48-21.56,87.46-21.52,135.28.04,47.44-6.02,99.61,2.57,146.29,15.6,84.77,72.61,157.82,80.03,244.56"/>
    <path class="cls-1" d="m401.43,24.47c10.66,98.46,64.83,187.16,87.19,282.98,13.62,58.35-.14,117.92-8.35,176.08-7.05,50-8.27,100.44-3.38,150.72,4.22,43.31,12.54,86.99,10.05,130.7-2.75,48.24-30.53,86.29-49.78,128.92-20.58,45.57-16.95,91.45-16.95,140.33,0,51.95-2.46,104.38,3.67,156.02,9.16,77.17,23.29,153.69,30.83,231.06"/>
    <path class="cls-1" d="m382.43,70.55c5.56,93.81,49.31,180.75,63.06,273.23,9.51,63.96-19.9,122.38-40.39,181.3-16.21,46.62-27.54,94.04-9.37,141.65,12.82,33.62,28.79,60.93,29.31,98.29.65,46.96-15,91.23-24.98,136.52-10.95,49.72-8.22,100.09-8.22,150.68s5.47,104.87-3.65,154.71c-14.11,77.07-53.4,147.24-61.38,225.73"/>
    <path class="cls-1" d="m356.75,109.43c2.25,89.96,34.86,175.97,41.78,265.41,5.32,68.76-38.71,127.76-68.25,186.45-19.45,38.65-47.11,94.78-12.5,132.83,8.71,9.57,20.46,15.82,29.11,25.46,11.8,13.13,15.14,28.1,16.35,45.37,3.31,47.33-2.27,95.51-4.25,142.79-2.09,49.79-.77,99.71-.77,149.53v77.91c0,30.55,3.74,61.78-8.98,90.31-33.59,75.31-117.79,120.37-137.36,203.02"/>
    <path class="cls-1" d="m300.18,113.14c3.67,84.7,26.88,167.09,35.51,251.24,3.49,34.06.69,62.49-13.66,93.84-15.54,33.95-36.54,65.08-54.87,97.52-22.11,39.11-53.84,97.72-18.19,138.77,22.38,25.77,46.46,36.33,48.4,74.52,4.98,98.3,4.03,197.44,4.03,295.89v80.69c0,27.21,4.83,57.97-8.43,82.7-34.95,65.16-129.39,94.93-143.36,171.77"/>
    <path class="cls-1" d="m230.07,91.42c3.14,85.7,25.03,169.36,31.8,254.71,2.67,33.67-1.57,60.14-17.02,90.45-16.2,31.78-37.57,60.57-55.99,91.03-30.47,50.39-42.01,93.2-19.7,148.87,16.15,40.3,37.7,75.36,39.39,119.94,1.69,44.45,14.76,83.19,24.38,126.11,10.58,47.22,6.59,97.11,6.59,145.18v80.08c0,26.52,4.67,56.54-7.88,80.85-31.3,60.64-116.41,90.48-127.27,162.07"/>
    <path class="cls-1" d="m158,64.54c2.17,85.9,21.83,170.18,26.95,255.84,4.11,68.72-39.79,114.59-76.01,168.39-15.84,23.53-31.5,49.08-34.21,77.96-2.61,27.79,3.62,57.33,8.86,84.55,11.51,59.81,26.48,117.43,30.04,178.44,2.47,42.32,27.96,65.33,48.24,99.49,23.41,39.43,15.8,88.92,15.8,132.95v78.43c0,25.69,4.56,55.98-3.45,80.72-22.14,68.37-107.73,99.57-116.53,174.36"/>
</svg>